<svg width="209" height="206" viewBox="0 0 209 206" fill="none" xmlns="http://www.w3.org/2000/svg">
<path d="M104.5 196.907C158.887 196.907 202.977 171.817 202.977 140.867C202.977 109.917 158.887 84.8267 104.5 84.8267C50.1129 84.8267 6.02344 109.917 6.02344 140.867C6.02344 171.817 50.1129 196.907 104.5 196.907Z" fill="#F0F0F0"/>
<path d="M84.1225 183.332C102.877 183.332 118.081 174.681 118.081 164.009C118.081 153.337 102.877 144.686 84.1225 144.686C65.3678 144.686 50.1642 153.337 50.1642 164.009C50.1642 174.681 65.3678 183.332 84.1225 183.332Z" fill="#E0E0E0"/>
<path d="M180.693 139.833L176.71 137.567C176.71 137.567 175.736 129.162 176.384 122.652C177.295 113.506 183.289 102.497 190.437 105.085C197.584 107.672 187.16 116.983 184.84 124.741C182.52 132.499 180.693 139.833 180.693 139.833Z" fill="#F58634"/>
<path opacity="0.15" d="M180.693 139.833L176.71 137.567C176.71 137.567 175.736 129.162 176.384 122.652C177.295 113.506 183.289 102.497 190.437 105.085C197.584 107.672 187.16 116.983 184.84 124.741C182.52 132.499 180.693 139.833 180.693 139.833Z" fill="black"/>
<path d="M178.599 138.881C178.662 138.878 178.722 138.85 178.765 138.804C178.808 138.758 178.831 138.697 178.829 138.634C178.131 118.31 188.397 108.084 188.497 107.985C188.543 107.941 188.568 107.88 188.568 107.816C188.568 107.753 188.543 107.692 188.497 107.647C188.475 107.625 188.449 107.608 188.42 107.596C188.391 107.584 188.359 107.578 188.328 107.578C188.296 107.578 188.265 107.584 188.236 107.596C188.207 107.608 188.181 107.625 188.159 107.647C188.05 107.746 177.638 118.121 178.344 138.65C178.345 138.682 178.352 138.713 178.366 138.742C178.379 138.771 178.399 138.797 178.422 138.819C178.446 138.84 178.474 138.857 178.504 138.867C178.535 138.878 178.567 138.883 178.599 138.881Z" fill="white"/>
<path d="M183.197 141.246L180.363 139.635C180.363 139.635 179.878 133.867 182.75 126.863C185.258 120.765 191.444 115.702 194.562 116.765C197.681 117.828 197.601 120.007 196.08 122.294C194.558 124.581 185.316 130.023 183.197 141.246Z" fill="#F58634"/>
<path d="M181.701 140.636C181.764 140.635 181.826 140.61 181.871 140.565C181.916 140.52 181.942 140.46 181.943 140.397C181.884 127.543 194.128 118.858 194.253 118.771C194.279 118.754 194.301 118.731 194.318 118.705C194.335 118.678 194.347 118.649 194.352 118.618C194.357 118.587 194.356 118.556 194.348 118.525C194.34 118.495 194.327 118.467 194.307 118.442C194.27 118.391 194.215 118.356 194.152 118.346C194.09 118.335 194.025 118.349 193.973 118.384C193.848 118.471 181.404 127.304 181.458 140.397C181.458 140.461 181.484 140.521 181.529 140.566C181.575 140.611 181.636 140.636 181.701 140.636Z" fill="white"/>
<path d="M33.2979 134.786L36.9763 132.338C36.9763 132.338 38.594 122.862 37.0892 114.503C34.9741 102.777 26.752 98.8799 23.826 100.116C20.9 101.352 20.273 104.842 25.7363 111.532C28.9758 115.467 33.1851 123.868 33.2979 134.786Z" fill="#F58634"/>
<g opacity="0.15">
<path d="M33.2979 134.786L36.9763 132.338C36.9763 132.338 38.594 122.862 37.0892 114.503C34.9741 102.777 26.752 98.8799 23.826 100.116C20.9 101.352 20.273 104.842 25.7363 111.532C28.9758 115.467 33.1851 123.868 33.2979 134.786Z" fill="black"/>
</g>
<path d="M34.5602 130.089H34.5226C34.485 130.087 34.4484 130.076 34.4151 130.059C34.3817 130.042 34.3525 130.018 34.3292 129.989C34.3059 129.96 34.2891 129.926 34.28 129.89C34.2708 129.854 34.2695 129.816 34.276 129.78C35.6052 118.742 30.8777 106.761 25.7321 101.995C25.6826 101.945 25.6548 101.879 25.6548 101.809C25.6548 101.74 25.6826 101.673 25.7321 101.624C25.7566 101.599 25.7859 101.58 25.8182 101.566C25.8505 101.553 25.8851 101.546 25.9202 101.546C25.9552 101.546 25.9899 101.553 26.0222 101.566C26.0545 101.58 26.0838 101.599 26.1083 101.624C31.35 106.477 36.1654 118.656 34.8194 129.854C34.8115 129.917 34.7811 129.975 34.7336 130.018C34.6861 130.061 34.6247 130.086 34.5602 130.089Z" fill="white"/>
<path d="M23.6672 141.188C23.082 141.534 21.3766 140.286 20.9042 139.985C20.0947 139.464 19.4353 138.746 18.9898 137.9C18.49 136.941 18.3045 135.853 18.4589 134.786C18.5445 134.229 18.6688 133.678 18.831 133.138C18.9773 132.598 19.1236 132.058 19.249 131.514C19.4343 130.985 19.5055 130.424 19.458 129.866C19.2949 128.766 18.2876 128.012 17.368 127.365C16.3564 126.644 15.278 125.693 15.278 124.366C15.3295 123.324 15.7343 122.329 16.4275 121.54C17.0545 120.716 17.8069 119.999 18.3712 119.138C18.8124 118.541 19.0376 117.816 19.0107 117.078C18.938 116.623 18.7731 116.187 18.5258 115.797C18.0326 114.94 17.393 114.149 17.0461 113.238C16.6992 112.327 16.7242 111.157 17.4641 110.478C18.0535 109.921 18.9522 109.831 19.7673 109.868C20.5353 109.943 21.2773 110.184 21.9409 110.572C24.1019 111.705 25.3727 114.177 27.6591 115.038C28.5411 115.368 29.5025 115.426 30.4179 115.648C31.3333 115.871 32.278 116.312 32.7169 117.131C33.5822 118.759 32.0732 120.811 32.6918 122.537C33.2436 124.069 34.7818 124.63 35.6513 126.002C36.0041 126.611 36.1506 127.315 36.0693 128.012C36.0202 129.189 35.7525 130.347 35.2793 131.428C34.735 132.549 34.1208 133.636 33.4401 134.683C33.4401 134.683 23.755 141.135 23.6672 141.188Z" fill="#F58634"/>
<path d="M29.3185 137.773C29.2834 137.772 29.2487 137.765 29.2165 137.751C29.1842 137.737 29.155 137.718 29.1306 137.693C29.1061 137.668 29.0869 137.638 29.0739 137.606C29.061 137.574 29.0546 137.54 29.0552 137.505C29.2893 127.073 24.081 115.669 20.3942 112.373C20.3418 112.326 20.3102 112.261 20.3063 112.192C20.3024 112.122 20.3265 112.054 20.3733 112.002C20.3979 111.978 20.4271 111.958 20.4594 111.945C20.4917 111.931 20.5264 111.924 20.5614 111.924C20.5965 111.924 20.6311 111.931 20.6634 111.945C20.6957 111.958 20.725 111.978 20.7495 112.002C24.5115 115.339 29.8243 126.941 29.5861 137.517C29.5855 137.551 29.5782 137.585 29.5644 137.616C29.5507 137.648 29.5308 137.676 29.506 137.7C29.4811 137.723 29.4518 137.742 29.4196 137.755C29.3875 137.767 29.3531 137.773 29.3185 137.773Z" fill="white"/>
<path d="M27.3665 125.062C27.3418 125.069 27.3159 125.069 27.2913 125.062C23.872 124.09 19.6335 123.991 19.5917 123.987C19.5567 123.987 19.5223 123.979 19.4902 123.965C19.4582 123.952 19.4293 123.932 19.4052 123.907C19.3811 123.882 19.3622 123.852 19.3497 123.82C19.3373 123.788 19.3314 123.754 19.3325 123.719C19.3319 123.685 19.3386 123.65 19.3521 123.618C19.3657 123.586 19.3859 123.557 19.4115 123.533C19.437 123.509 19.4673 123.49 19.5005 123.478C19.5337 123.467 19.569 123.462 19.6042 123.464C19.646 123.464 23.9514 123.567 27.4376 124.556C27.5049 124.576 27.5616 124.621 27.5952 124.682C27.6289 124.743 27.6368 124.815 27.6173 124.881C27.601 124.934 27.5678 124.98 27.5225 125.013C27.4773 125.046 27.4226 125.063 27.3665 125.062Z" fill="white"/>
<path d="M125.885 127.613L124.301 126.711C124.037 126.542 123.817 126.314 123.659 126.045C123.502 125.777 123.411 125.475 123.394 125.166V60.2673C123.411 59.9581 123.501 59.6572 123.658 59.3889C123.815 59.1205 124.034 58.8922 124.296 58.7223L168.333 33.6645C168.613 33.5244 168.923 33.4514 169.238 33.4514C169.552 33.4514 169.862 33.5244 170.143 33.6645L171.727 34.5668C171.991 34.7357 172.211 34.9637 172.368 35.2322C172.526 35.5007 172.617 35.802 172.634 36.1118V101.01C172.617 101.319 172.526 101.62 172.369 101.888C172.212 102.157 171.994 102.385 171.731 102.555L127.695 127.617C127.414 127.757 127.104 127.83 126.789 127.83C126.475 127.829 126.165 127.755 125.885 127.613Z" fill="#455A64"/>
<path d="M172.634 35.9676C172.571 35.5061 172.191 35.3372 171.735 35.5968L127.695 60.6587C127.428 60.8234 127.209 61.0515 127.055 61.3221L123.657 59.3898C123.809 59.1172 124.029 58.8875 124.296 58.7223L168.333 33.6645C168.613 33.5244 168.923 33.4514 169.238 33.4514C169.552 33.4514 169.862 33.5244 170.143 33.6645L171.727 34.5668C171.972 34.722 172.179 34.9276 172.336 35.1694C172.492 35.4112 172.594 35.6835 172.634 35.9676Z" fill="#455A64"/>
<path d="M127.54 127.687C127.273 127.794 126.985 127.843 126.696 127.831C126.408 127.819 126.126 127.746 125.868 127.617L124.28 126.711C124.017 126.541 123.798 126.313 123.642 126.044C123.485 125.776 123.394 125.475 123.377 125.166V60.2675C123.388 59.9576 123.478 59.6556 123.64 59.3899L127.039 61.3222C126.873 61.5883 126.781 61.8921 126.771 62.2039V127.102C126.788 127.613 127.114 127.848 127.54 127.687Z" fill="#263238"/>
<path d="M126.788 62.212V127.102C126.788 127.671 127.206 127.901 127.695 127.617L171.731 102.555C171.994 102.385 172.212 102.157 172.369 101.889C172.526 101.62 172.617 101.319 172.634 101.01V36.1118C172.634 35.5432 172.216 35.3125 171.731 35.5968L127.695 60.6588C127.43 60.8285 127.209 61.0578 127.052 61.3278C126.894 61.5978 126.803 61.9008 126.788 62.212Z" fill="#37474F"/>
<path d="M116.505 86.9321C115.936 86.5984 113.299 85.1193 113.161 85.041C113.053 84.9778 112.962 84.8916 112.893 84.7888C112.823 84.686 112.779 84.5691 112.761 84.4469C112.744 84.3248 112.755 84.2003 112.793 84.0828C112.831 83.9653 112.895 83.8577 112.981 83.7679L123.394 72.7593L126.788 74.6792L116.38 85.6961C116.298 85.7819 116.236 85.8839 116.197 85.9954C116.159 86.1068 116.145 86.2251 116.157 86.3422C116.169 86.4593 116.206 86.5725 116.266 86.6743C116.326 86.776 116.408 86.8639 116.505 86.9321Z" fill="#455A64"/>
<path d="M126.788 74.6914L116.38 85.6959C116.264 85.8176 116.188 85.9709 116.163 86.1357C116.138 86.3005 116.164 86.4689 116.238 86.6189C116.311 86.7688 116.43 86.8932 116.577 86.9756C116.724 87.058 116.892 87.0944 117.061 87.0802L126.788 86.2892V74.6914Z" fill="#37474F"/>
<path d="M149.711 54.8784C154.844 51.9573 159.003 54.3263 159.003 60.1685C159.003 66.0106 154.844 73.1094 149.711 76.0305C144.578 78.9516 140.419 76.5826 140.419 70.7445C140.419 64.9065 144.578 57.7995 149.711 54.8784Z" fill="#F58634"/>
<path d="M149.644 59.4763C151.316 58.5287 152.658 59.2951 152.658 61.1903C152.601 62.2205 152.298 63.2229 151.775 64.1163C151.251 65.0097 150.521 65.7688 149.644 66.332C147.972 67.2796 146.626 66.5133 146.626 64.6181C146.683 63.5875 146.987 62.5848 147.511 61.6914C148.035 60.798 148.766 60.0391 149.644 59.4763Z" fill="white"/>
<path d="M155.588 69.5785C155.588 66.4679 153.368 65.2031 150.635 66.7604L148.925 67.7327C146.191 69.2901 143.972 73.0887 143.972 76.1911V77.0439C144.488 77.2065 145.027 77.2886 145.568 77.287C147.035 77.2379 148.463 76.8118 149.711 76.051C152.087 74.6084 154.097 72.6496 155.588 70.3242V69.5785Z" fill="white"/>
<path d="M143.825 104.949L155.596 98.2496C156.098 97.9654 156.503 98.1961 156.503 98.7646V102.501C156.486 102.811 156.395 103.113 156.238 103.381C156.08 103.65 155.86 103.878 155.596 104.046L143.825 110.746C143.324 111.03 142.918 110.799 142.918 110.231V106.494C142.935 106.184 143.026 105.883 143.184 105.614C143.342 105.346 143.561 105.118 143.825 104.949Z" fill="#F58634"/>
<path d="M138.061 96.6017L161.348 83.3435C161.946 83.0015 162.435 83.2776 162.435 83.9615V85.3499C162.414 85.7214 162.305 86.083 162.116 86.4051C161.928 86.7273 161.664 87.0009 161.348 87.2039L138.049 100.462C137.451 100.804 136.966 100.528 136.966 99.8441V98.468C136.985 98.0936 137.094 97.729 137.285 97.4044C137.475 97.0799 137.741 96.8047 138.061 96.6017Z" fill="#FAFAFA"/>
<path d="M140.787 87.006C141.104 86.8248 141.351 86.7959 141.526 86.9236C141.702 87.0514 141.79 87.3356 141.79 87.7724C141.799 88.171 141.708 88.5657 141.526 88.9218C141.362 89.2438 141.105 89.5105 140.787 89.6882L140.16 90.0466V91.3774C140.158 91.4232 140.147 91.4682 140.126 91.5092C140.111 91.5465 140.085 91.5782 140.051 91.5998L139.733 91.7811C139.722 91.7891 139.709 91.7935 139.696 91.7935C139.682 91.7935 139.669 91.7891 139.658 91.7811C139.635 91.7532 139.625 91.7177 139.629 91.6822V87.83C139.628 87.7845 139.638 87.7394 139.658 87.6982C139.674 87.6616 139.7 87.6301 139.733 87.6076L140.787 87.006ZM140.16 89.3009L140.766 88.9548C140.912 88.8734 141.036 88.7573 141.125 88.617C141.22 88.4515 141.267 88.2631 141.259 88.0731C141.259 87.8506 141.213 87.7229 141.125 87.6858C141.063 87.671 140.998 87.6703 140.936 87.6839C140.874 87.6974 140.816 87.7249 140.766 87.7641L140.16 88.1102V89.3009Z" fill="#FAFAFA"/>
<path d="M143.541 85.4365C143.583 85.4118 143.616 85.4118 143.637 85.4365C143.664 85.4735 143.683 85.5156 143.692 85.5601L144.657 88.782C144.657 88.782 144.657 88.8067 144.657 88.819C144.657 88.8649 144.645 88.9101 144.624 88.9509C144.609 88.9882 144.583 89.0199 144.549 89.0415L144.264 89.2022C144.214 89.231 144.177 89.2351 144.156 89.2022C144.135 89.1815 144.121 89.1559 144.114 89.128L143.943 88.5636L142.689 89.2722L142.521 90.0303C142.509 90.0714 142.494 90.1113 142.475 90.1498C142.455 90.2 142.416 90.241 142.367 90.2651L142.082 90.4258C142.072 90.4345 142.059 90.4393 142.045 90.4393C142.031 90.4393 142.018 90.4345 142.007 90.4258C141.985 90.3992 141.975 90.3652 141.978 90.3311C141.976 90.316 141.976 90.3008 141.978 90.2858L142.939 85.968C142.951 85.9045 142.969 85.8424 142.994 85.7826C143.014 85.7393 143.048 85.7033 143.09 85.6796L143.541 85.4365ZM143.759 87.9332L143.341 86.4789L142.923 88.4235L143.759 87.9332Z" fill="#FAFAFA"/>
<path d="M146.12 83.9078C146.26 83.8208 146.419 83.7685 146.584 83.7554C146.701 83.7451 146.818 83.771 146.919 83.8296C147.01 83.8882 147.082 83.973 147.123 84.0726C147.169 84.174 147.195 84.2831 147.199 84.394C147.202 84.4398 147.191 84.4854 147.169 84.5258C147.155 84.5631 147.128 84.5948 147.094 84.6165L146.818 84.773C146.772 84.7978 146.739 84.8019 146.718 84.773C146.692 84.7562 146.671 84.7337 146.655 84.7071C146.639 84.67 146.614 84.6367 146.584 84.6091C146.554 84.5815 146.518 84.5602 146.48 84.5464C146.352 84.5285 146.223 84.5611 146.12 84.6371C146.052 84.6802 145.988 84.7284 145.928 84.7813C145.866 84.8376 145.811 84.9012 145.765 84.9708C145.72 85.0379 145.684 85.1097 145.656 85.185C145.632 85.2567 145.619 85.3318 145.619 85.4075C145.614 85.4769 145.627 85.5463 145.656 85.6094C145.669 85.6315 145.687 85.6502 145.709 85.6639C145.731 85.6775 145.756 85.6857 145.782 85.6877C145.859 85.7009 145.938 85.7009 146.016 85.6877L146.379 85.6094C146.515 85.5698 146.656 85.5531 146.797 85.56C146.898 85.5597 146.996 85.5914 147.077 85.6506C147.154 85.714 147.209 85.7987 147.236 85.8937C147.277 86.0271 147.296 86.1663 147.291 86.3057C147.29 86.4897 147.264 86.6728 147.211 86.8495C147.16 87.0312 147.086 87.2056 146.99 87.3686C146.888 87.5357 146.768 87.6905 146.63 87.8301C146.49 87.9738 146.329 88.0972 146.154 88.1968C146.025 88.274 145.883 88.3284 145.736 88.3574C145.615 88.3802 145.491 88.3703 145.376 88.3286C145.272 88.2807 145.185 88.2014 145.13 88.102C145.061 87.9749 145.024 87.8338 145.021 87.69C145.02 87.6431 145.03 87.5967 145.05 87.554C145.069 87.519 145.096 87.4892 145.13 87.4675L145.405 87.311C145.447 87.2862 145.481 87.278 145.506 87.2904C145.531 87.3027 145.548 87.3233 145.564 87.3604C145.582 87.4028 145.604 87.4429 145.631 87.4799C145.657 87.5158 145.694 87.5431 145.736 87.5582C145.791 87.5707 145.848 87.5707 145.903 87.5582C145.992 87.5375 146.076 87.5027 146.154 87.4552C146.235 87.4096 146.312 87.3572 146.384 87.2986C146.524 87.1889 146.636 87.0477 146.71 86.8866C146.743 86.8041 146.76 86.7159 146.76 86.627C146.764 86.5948 146.761 86.562 146.752 86.5309C146.742 86.4997 146.727 86.4707 146.705 86.4458C146.683 86.4261 146.656 86.4115 146.627 86.403C146.598 86.3945 146.568 86.3922 146.538 86.3963C146.443 86.4002 146.349 86.4154 146.258 86.4416C146.149 86.4664 146.024 86.4952 145.878 86.5199C145.766 86.5475 145.65 86.5559 145.535 86.5446C145.445 86.5389 145.359 86.5025 145.293 86.4416C145.22 86.3718 145.17 86.2833 145.146 86.1862C145.113 86.0431 145.097 85.8964 145.1 85.7495C145.1 85.5681 145.127 85.3876 145.18 85.2139C145.23 85.0351 145.303 84.8634 145.397 84.703C145.487 84.5437 145.597 84.3957 145.723 84.2622C145.838 84.1261 145.971 84.0068 146.12 83.9078Z" fill="#FAFAFA"/>
<path d="M148.867 82.3505C149.005 82.2608 149.165 82.2069 149.33 82.1939C149.447 82.1841 149.564 82.21 149.665 82.2681C149.754 82.3283 149.824 82.4127 149.866 82.5112C149.911 82.6126 149.937 82.7216 149.941 82.8325C149.946 82.8784 149.935 82.9247 149.912 82.9644C149.897 83.0016 149.87 83.0334 149.836 83.055L149.56 83.2116C149.519 83.2363 149.485 83.2445 149.46 83.2116C149.433 83.195 149.413 83.1705 149.402 83.1415C149.363 83.0692 149.299 83.0134 149.222 82.985C149.159 82.9759 149.096 82.9793 149.035 82.9949C148.974 83.0104 148.917 83.0379 148.867 83.0756C148.797 83.1176 148.731 83.1659 148.67 83.2198C148.609 83.2762 148.556 83.3398 148.511 83.4093C148.465 83.4754 148.429 83.5475 148.403 83.6236C148.377 83.695 148.362 83.7701 148.361 83.846C148.356 83.9154 148.369 83.9848 148.398 84.0479C148.411 84.07 148.429 84.0887 148.451 84.1024C148.473 84.116 148.498 84.1242 148.524 84.1262C148.601 84.1395 148.68 84.1395 148.758 84.1262L149.121 84.0479C149.257 84.0106 149.398 83.9939 149.539 83.9985C149.64 83.9976 149.739 84.0294 149.82 84.0891C149.896 84.1534 149.952 84.2377 149.983 84.3322C150.019 84.4664 150.036 84.6052 150.033 84.7442C150.032 84.9283 150.006 85.1114 149.953 85.288C149.902 85.4697 149.828 85.6442 149.732 85.8072C149.631 85.9758 149.51 86.1321 149.372 86.2727C149.231 86.4129 149.072 86.5347 148.9 86.6353C148.771 86.7122 148.63 86.7666 148.482 86.796C148.363 86.8184 148.24 86.8084 148.127 86.7671C148.02 86.7207 147.932 86.6411 147.876 86.5405C147.807 86.4137 147.771 86.2722 147.771 86.1285C147.766 86.0826 147.777 86.0364 147.801 85.9967C147.815 85.9594 147.842 85.9277 147.876 85.906L148.152 85.7495C148.194 85.7248 148.231 85.7165 148.252 85.7289C148.267 85.7354 148.279 85.7451 148.29 85.7572C148.3 85.7693 148.307 85.7836 148.311 85.7989C148.329 85.8405 148.352 85.8805 148.377 85.9184C148.405 85.9546 148.443 85.9819 148.486 85.9967C148.541 86.0092 148.598 86.0092 148.653 85.9967C148.742 85.976 148.827 85.9413 148.904 85.8937C148.983 85.8471 149.059 85.7947 149.13 85.7371C149.203 85.6806 149.268 85.614 149.322 85.5394C149.376 85.4682 149.421 85.3907 149.456 85.3086C149.489 85.2261 149.506 85.138 149.506 85.0491C149.51 85.0168 149.507 84.9841 149.498 84.9529C149.488 84.9217 149.473 84.8928 149.452 84.8678C149.429 84.8482 149.402 84.8336 149.374 84.825C149.345 84.8165 149.314 84.8142 149.285 84.8184C149.191 84.824 149.099 84.8392 149.009 84.8637C148.9 84.8884 148.77 84.9172 148.628 84.942C148.515 84.9696 148.398 84.9779 148.281 84.9667C148.191 84.962 148.105 84.9254 148.039 84.8637C147.968 84.7935 147.919 84.7049 147.897 84.6082C147.86 84.4671 147.843 84.3214 147.847 84.1756C147.848 83.993 147.875 83.8114 147.926 83.6359C147.978 83.4578 148.051 83.2863 148.143 83.125C148.234 82.9647 148.345 82.8166 148.474 82.6842C148.586 82.5535 148.719 82.4409 148.867 82.3505Z" fill="#FAFAFA"/>
<path d="M151.914 82.8656L151.575 84.8391C151.565 84.8984 151.548 84.9565 151.525 85.0121C151.509 85.0565 151.478 85.0943 151.437 85.1192L151.12 85.3005C151.078 85.3252 151.048 85.3252 151.028 85.3005C151 85.2666 150.983 85.2247 150.982 85.181L150.48 81.6996C150.48 81.6996 150.48 81.6667 150.48 81.6543C150.481 81.6085 150.493 81.5635 150.513 81.5225C150.529 81.4858 150.555 81.4544 150.589 81.4318L150.877 81.267C150.901 81.2574 150.928 81.2574 150.952 81.267C150.977 81.267 150.994 81.3 151.002 81.3659L151.333 83.7102L151.621 81.951C151.629 81.9071 151.641 81.8642 151.659 81.8232C151.675 81.7711 151.711 81.727 151.759 81.6996L152.081 81.5142C152.127 81.4895 152.16 81.4936 152.181 81.5142C152.199 81.5404 152.212 81.5698 152.219 81.6008L152.511 83.0304L152.842 80.3112C152.846 80.2577 152.861 80.2057 152.888 80.1588C152.907 80.128 152.933 80.1014 152.963 80.0805L153.251 79.9157C153.262 79.9077 153.275 79.9033 153.289 79.9033C153.303 79.9033 153.316 79.9077 153.327 79.9157C153.338 79.9292 153.348 79.9449 153.353 79.9618C153.359 79.9788 153.361 79.9967 153.36 80.0146C153.362 80.031 153.362 80.0476 153.36 80.064L152.858 84.114C152.85 84.1732 152.835 84.2313 152.812 84.287C152.793 84.331 152.761 84.3683 152.72 84.3941L152.399 84.5754C152.361 84.596 152.332 84.596 152.311 84.5754C152.29 84.5375 152.273 84.4975 152.261 84.4559L151.914 82.8656Z" fill="#FAFAFA"/>
<path d="M153.87 81.1188C153.879 80.8903 153.907 80.663 153.954 80.439C154.001 80.22 154.074 80.0072 154.171 79.8045C154.263 79.6074 154.381 79.4232 154.522 79.2565C154.665 79.0912 154.836 78.9517 155.028 78.8445C155.175 78.746 155.347 78.6904 155.525 78.6838C155.658 78.6853 155.785 78.7369 155.88 78.828C155.982 78.9402 156.055 79.0743 156.094 79.2194C156.148 79.4087 156.177 79.6039 156.181 79.8004C156.181 79.8745 156.181 79.9569 156.181 80.0476C156.181 80.1382 156.181 80.233 156.181 80.3318C156.181 80.4307 156.181 80.5255 156.181 80.6161C156.181 80.7068 156.181 80.7933 156.181 80.8716C156.172 81.0987 156.144 81.3246 156.098 81.5472C156.05 81.7655 155.978 81.9782 155.885 82.1817C155.79 82.3781 155.67 82.5622 155.529 82.7297C155.386 82.8935 155.217 83.0327 155.028 83.1417C154.877 83.2395 154.702 83.295 154.522 83.3024C154.457 83.3037 154.392 83.2919 154.332 83.2678C154.271 83.2438 154.217 83.2079 154.171 83.1623C154.062 83.0469 153.987 82.9045 153.954 82.7503C153.904 82.5603 153.876 82.3655 153.87 82.1694C153.87 82.0952 153.87 82.0128 153.87 81.9222C153.87 81.8315 153.87 81.7368 153.87 81.6379C153.87 81.539 153.87 81.4484 153.87 81.3536C153.87 81.2588 153.866 81.1929 153.87 81.1188ZM155.651 80.1341C155.66 80.0333 155.648 79.9317 155.617 79.8354C155.585 79.7391 155.534 79.6501 155.467 79.5738C155.358 79.479 155.208 79.4831 155.028 79.5738C154.833 79.6868 154.678 79.8566 154.585 80.0599C154.466 80.3001 154.403 80.5633 154.401 80.8304C154.401 80.9828 154.401 81.1517 154.401 81.3371C154.401 81.5225 154.401 81.6873 154.401 81.8356C154.391 81.9364 154.403 82.038 154.435 82.1343C154.466 82.2306 154.517 82.3196 154.585 82.396C154.693 82.4866 154.844 82.4784 155.028 82.3754C155.22 82.2615 155.373 82.0936 155.467 81.8933C155.585 81.6546 155.648 81.3928 155.651 81.127C155.651 80.9704 155.651 80.8015 155.651 80.6161C155.651 80.4307 155.655 80.2824 155.651 80.1341Z" fill="#FAFAFA"/>
<path d="M158.004 77.2006C158.334 77.0152 158.581 76.9864 158.752 77.1223C158.854 77.2326 158.929 77.3637 158.973 77.5062C159.017 77.6486 159.029 77.7989 159.007 77.9463C159.011 78.2262 158.967 78.5046 158.878 78.7703C158.793 79.0178 158.661 79.2471 158.489 79.446L159.032 80.612C159.034 80.6311 159.034 80.6504 159.032 80.6696C159.033 80.7068 159.024 80.7434 159.007 80.7767C158.996 80.8067 158.975 80.8325 158.949 80.8509L158.614 81.0404C158.56 81.0693 158.522 81.0734 158.497 81.0404C158.475 81.0188 158.457 80.9938 158.443 80.9663L157.929 79.8662L157.406 80.1629V81.5554C157.407 81.601 157.397 81.646 157.377 81.6873C157.36 81.7231 157.334 81.7542 157.302 81.7779L156.984 81.9592C156.974 81.9679 156.96 81.9727 156.946 81.9727C156.933 81.9727 156.919 81.9679 156.909 81.9592C156.897 81.9466 156.888 81.9316 156.882 81.9153C156.876 81.899 156.874 81.8816 156.875 81.8644V78.0122C156.877 77.9664 156.888 77.9214 156.909 77.8804C156.924 77.8431 156.95 77.8114 156.984 77.7897L158.004 77.2006ZM157.415 79.4171L158.004 79.104C158.148 79.0248 158.271 78.9133 158.364 78.7786C158.46 78.6198 158.507 78.4362 158.497 78.2512C158.497 78.0287 158.451 77.9051 158.364 77.8804C158.236 77.8633 158.107 77.8958 158.004 77.971L157.436 78.2924L157.415 79.4171Z" fill="#FAFAFA"/>
<path d="M160.805 75.6143C160.956 75.5167 161.13 75.4573 161.31 75.4413C161.441 75.4365 161.569 75.4823 161.666 75.569C161.776 75.6837 161.853 75.8262 161.887 75.981C161.943 76.1853 161.974 76.3956 161.979 76.6072C161.979 76.8956 161.979 77.1923 161.979 77.493C161.971 77.7383 161.94 77.9824 161.887 78.2223C161.839 78.4452 161.767 78.6621 161.67 78.8691C161.577 79.0592 161.459 79.2364 161.319 79.3965C161.179 79.5602 161.012 79.6995 160.826 79.8085L159.835 80.3399C159.824 80.3487 159.811 80.3534 159.797 80.3534C159.783 80.3534 159.77 80.3487 159.76 80.3399C159.747 80.3275 159.738 80.3125 159.732 80.2962C159.727 80.2798 159.724 80.2624 159.726 80.2452V76.393C159.727 76.3471 159.739 76.3021 159.76 76.2611C159.774 76.2239 159.801 76.1921 159.835 76.1705L160.805 75.6143ZM161.448 76.8956C161.446 76.784 161.43 76.6732 161.398 76.566C161.379 76.4849 161.337 76.4107 161.277 76.3518C161.251 76.3259 161.219 76.3056 161.185 76.2922C161.15 76.2787 161.113 76.2723 161.076 76.2735C160.972 76.2804 160.871 76.3145 160.784 76.3724L160.257 76.669V79.3553L160.805 79.0463C160.911 78.9855 161.005 78.9075 161.085 78.8155C161.163 78.7252 161.229 78.6255 161.281 78.5189C161.333 78.4054 161.372 78.2866 161.398 78.1646C161.427 78.0373 161.444 77.9077 161.448 77.7773C161.461 77.4765 161.461 77.184 161.448 76.8956Z" fill="#FAFAFA"/>
<path d="M103.405 15.8166C104.126 15.9748 104.821 16.2328 105.47 16.5829C106.09 16.9118 106.647 17.3471 107.112 17.8684C107.558 18.3698 107.889 18.96 108.082 19.5988C108.279 20.2825 108.294 21.005 108.124 21.6958C108.012 22.2436 107.792 22.7643 107.476 23.2285C107.188 23.6254 106.845 23.9804 106.456 24.2832C106.075 24.5751 105.668 24.8329 105.24 25.0536L104.036 25.684C103.673 25.8704 103.329 26.0897 103.008 26.3391C102.717 26.5589 102.494 26.8542 102.364 27.1919C102.3 27.3462 102.195 27.4802 102.059 27.5792C101.995 27.6284 101.92 27.6626 101.84 27.679C101.76 27.6954 101.678 27.6937 101.599 27.674L99.8267 27.2867C99.7414 27.269 99.6604 27.2348 99.5887 27.186C99.5169 27.1372 99.4557 27.0748 99.4087 27.0024C99.3587 26.9351 99.3254 26.8572 99.3116 26.7749C99.2978 26.6925 99.3039 26.6082 99.3293 26.5286C99.472 25.9876 99.7236 25.4804 100.069 25.0372C100.384 24.6451 100.75 24.2948 101.156 23.9948C101.552 23.7092 101.971 23.457 102.41 23.2408C102.828 23.0307 103.246 22.8288 103.61 22.627C103.948 22.4477 104.266 22.2337 104.558 21.9884C104.815 21.7766 104.993 21.4867 105.064 21.1644C105.131 20.8844 105.127 20.5928 105.055 20.3144C104.982 20.036 104.842 19.7792 104.646 19.5658C104.157 19.0398 103.504 18.6903 102.79 18.5729C101.469 18.2845 100.355 18.7226 99.4463 19.8872C99.3586 20.0143 99.2481 20.1246 99.1203 20.2126C98.976 20.2831 98.8094 20.295 98.6563 20.2456L96.7711 19.8336C96.6367 19.808 96.5179 19.731 96.4409 19.6194C96.3998 19.5597 96.3721 19.4921 96.3599 19.421C96.3476 19.3499 96.351 19.277 96.3698 19.2074C96.5301 18.6349 96.8284 18.109 97.2393 17.6747C97.7027 17.171 98.2533 16.7525 98.8653 16.4387C99.5345 16.0936 100.256 15.8571 101.001 15.7383C101.8 15.6103 102.616 15.6369 103.405 15.8166ZM101.403 29.0748C101.568 29.1131 101.712 29.2139 101.804 29.3556C101.895 29.4973 101.927 29.6686 101.892 29.8328L101.44 31.8516C101.425 31.9362 101.392 32.0166 101.343 32.0876C101.294 32.1586 101.23 32.2186 101.156 32.2636C101.086 32.3112 101.007 32.3438 100.923 32.3594C100.84 32.375 100.754 32.3733 100.671 32.3543L98.6479 31.897C98.5619 31.8827 98.48 31.8502 98.4079 31.8019C98.3358 31.7535 98.2751 31.6904 98.2299 31.6168C98.1831 31.5472 98.1512 31.4689 98.1361 31.3868C98.121 31.3046 98.123 31.2202 98.1422 31.1389L98.5978 29.1201C98.6368 28.9564 98.7388 28.8142 98.8824 28.7234C99.026 28.6327 99.1997 28.6006 99.3669 28.6339L101.403 29.0748Z" fill="#F58634"/>
<path d="M105.637 35.1436C106.14 35.064 106.652 35.0543 107.158 35.1148C107.642 35.1714 108.111 35.3108 108.546 35.5268C108.96 35.7385 109.325 36.0332 109.616 36.392C109.878 36.7431 110.063 37.1445 110.158 37.5703C110.253 37.9961 110.256 38.4368 110.168 38.864C110.088 39.1924 109.96 39.5075 109.788 39.7992C109.621 40.0829 109.428 40.3506 109.211 40.5985C108.998 40.8457 108.793 41.0805 108.605 41.3071C108.421 41.5182 108.257 41.7458 108.116 41.9869C107.983 42.1983 107.916 42.4432 107.923 42.6915C107.92 42.8075 107.887 42.9208 107.827 43.021C107.797 43.0672 107.757 43.1066 107.71 43.1364C107.663 43.1662 107.611 43.1859 107.556 43.1941L106.302 43.3919C106.243 43.4023 106.183 43.4012 106.125 43.3884C106.066 43.3757 106.012 43.3516 105.963 43.3177C105.914 43.2871 105.872 43.2454 105.842 43.1959C105.813 43.1465 105.795 43.0908 105.792 43.0334C105.739 42.65 105.767 42.2601 105.875 41.8881C105.973 41.5587 106.114 41.243 106.293 40.9487C106.469 40.6662 106.67 40.4001 106.895 40.1535C107.117 39.9063 107.313 39.6756 107.505 39.4531C107.677 39.2544 107.826 39.0375 107.948 38.8063C108.057 38.6073 108.097 38.3786 108.061 38.1553C108.03 37.9588 107.951 37.7726 107.831 37.6127C107.711 37.4527 107.553 37.3237 107.372 37.2366C106.922 37.0226 106.414 36.9617 105.925 37.0635C105.483 37.1272 105.072 37.3242 104.748 37.6273C104.424 37.9305 104.203 38.325 104.115 38.7569C104.091 38.8607 104.048 38.9597 103.99 39.0494C103.915 39.1276 103.814 39.176 103.706 39.1853L102.385 39.3955C102.292 39.413 102.196 39.3937 102.117 39.3419C102.077 39.3146 102.043 39.2792 102.018 39.238C101.993 39.1968 101.977 39.1507 101.971 39.1029C101.932 38.6941 101.996 38.282 102.159 37.904C102.324 37.4641 102.568 37.0567 102.878 36.701C103.218 36.3114 103.619 35.9776 104.065 35.7122C104.547 35.4243 105.081 35.2312 105.637 35.1436ZM107.794 44.1458C107.851 44.1368 107.91 44.1391 107.967 44.1525C108.023 44.166 108.077 44.1903 108.124 44.2241C108.173 44.256 108.215 44.2978 108.247 44.3468C108.278 44.3958 108.299 44.4509 108.308 44.5084L108.542 45.9215C108.56 46.0362 108.532 46.1532 108.463 46.2473C108.394 46.3414 108.29 46.405 108.174 46.4242L106.774 46.6508C106.658 46.6685 106.539 46.6404 106.444 46.5725C106.395 46.5402 106.354 46.4981 106.323 46.4492C106.292 46.4002 106.272 46.3454 106.264 46.2882L106.03 44.8751C106.019 44.8183 106.021 44.7601 106.034 44.704C106.048 44.6479 106.074 44.5953 106.109 44.5496C106.142 44.5018 106.185 44.4613 106.234 44.4308C106.284 44.4003 106.34 44.3804 106.398 44.3724L107.794 44.1458Z" fill="#F58634"/>
<g opacity="0.2">
<path d="M105.637 35.1436C106.14 35.064 106.652 35.0543 107.158 35.1148C107.642 35.1714 108.111 35.3108 108.546 35.5268C108.96 35.7385 109.325 36.0332 109.616 36.392C109.878 36.7431 110.063 37.1445 110.158 37.5703C110.253 37.9961 110.256 38.4368 110.168 38.864C110.088 39.1924 109.96 39.5075 109.788 39.7992C109.621 40.0829 109.428 40.3506 109.211 40.5985C108.998 40.8457 108.793 41.0805 108.605 41.3071C108.421 41.5182 108.257 41.7458 108.116 41.9869C107.983 42.1983 107.916 42.4432 107.923 42.6915C107.92 42.8075 107.887 42.9208 107.827 43.021C107.797 43.0672 107.757 43.1066 107.71 43.1364C107.663 43.1662 107.611 43.1859 107.556 43.1941L106.302 43.3919C106.243 43.4023 106.183 43.4012 106.125 43.3884C106.066 43.3757 106.012 43.3516 105.963 43.3177C105.914 43.2871 105.872 43.2454 105.842 43.1959C105.813 43.1465 105.795 43.0908 105.792 43.0334C105.739 42.65 105.767 42.2601 105.875 41.8881C105.973 41.5587 106.114 41.243 106.293 40.9487C106.469 40.6662 106.67 40.4001 106.895 40.1535C107.117 39.9063 107.313 39.6756 107.505 39.4531C107.677 39.2544 107.826 39.0375 107.948 38.8063C108.057 38.6073 108.097 38.3786 108.061 38.1553C108.03 37.9588 107.951 37.7726 107.831 37.6127C107.711 37.4527 107.553 37.3237 107.372 37.2366C106.922 37.0226 106.414 36.9617 105.925 37.0635C105.483 37.1272 105.072 37.3242 104.748 37.6273C104.424 37.9305 104.203 38.325 104.115 38.7569C104.091 38.8607 104.048 38.9597 103.99 39.0494C103.915 39.1276 103.814 39.176 103.706 39.1853L102.385 39.3955C102.292 39.413 102.196 39.3937 102.117 39.3419C102.077 39.3146 102.043 39.2792 102.018 39.238C101.993 39.1968 101.977 39.1507 101.971 39.1029C101.932 38.6941 101.996 38.282 102.159 37.904C102.324 37.4641 102.568 37.0567 102.878 36.701C103.218 36.3114 103.619 35.9776 104.065 35.7122C104.547 35.4243 105.081 35.2312 105.637 35.1436ZM107.794 44.1458C107.851 44.1368 107.91 44.1391 107.967 44.1525C108.023 44.166 108.077 44.1903 108.124 44.2241C108.173 44.256 108.215 44.2978 108.247 44.3468C108.278 44.3958 108.299 44.4509 108.308 44.5084L108.542 45.9215C108.56 46.0362 108.532 46.1532 108.463 46.2473C108.394 46.3414 108.29 46.405 108.174 46.4242L106.774 46.6508C106.658 46.6685 106.539 46.6404 106.444 46.5725C106.395 46.5402 106.354 46.4981 106.323 46.4492C106.292 46.4002 106.272 46.3454 106.264 46.2882L106.03 44.8751C106.019 44.8183 106.021 44.7601 106.034 44.704C106.048 44.6479 106.074 44.5953 106.109 44.5496C106.142 44.5018 106.185 44.4613 106.234 44.4308C106.284 44.4003 106.34 44.3804 106.398 44.3724L107.794 44.1458Z" fill="black"/>
</g>
<path d="M117.458 37.3643C117.515 37.4033 117.563 37.4534 117.6 37.5115C117.637 37.5696 117.661 37.6345 117.671 37.7021C117.684 37.7692 117.683 37.8382 117.668 37.9048C117.653 37.9715 117.624 38.0343 117.583 38.0894L116.588 39.4696C116.549 39.5258 116.498 39.5734 116.439 39.6095C116.38 39.6457 116.314 39.6695 116.246 39.6797C116.178 39.6928 116.108 39.6919 116.04 39.677C115.972 39.6621 115.909 39.6336 115.853 39.5932L114.482 38.6333C114.425 38.5947 114.376 38.5447 114.34 38.4864C114.304 38.4282 114.281 38.3631 114.273 38.2954C114.259 38.2284 114.26 38.1594 114.275 38.0927C114.291 38.0261 114.32 37.9632 114.361 37.9081L115.368 36.5279C115.449 36.4161 115.572 36.3404 115.71 36.3172C115.848 36.2941 115.989 36.3254 116.104 36.4043L117.458 37.3643ZM123.243 28.016C123.743 28.3613 124.188 28.7779 124.564 29.252C124.93 29.6931 125.214 30.1954 125.4 30.7352C125.573 31.2525 125.632 31.8005 125.571 32.342C125.5 32.9195 125.279 33.4689 124.928 33.9365C124.667 34.3145 124.331 34.6368 123.941 34.8841C123.598 35.0962 123.224 35.2573 122.833 35.362C122.452 35.4601 122.064 35.5263 121.671 35.5597L120.559 35.6586C120.226 35.6849 119.896 35.7414 119.573 35.8275C119.275 35.8942 119.003 36.0428 118.787 36.256C118.69 36.3535 118.567 36.422 118.432 36.4538C118.368 36.4719 118.3 36.4746 118.235 36.4617C118.169 36.4488 118.108 36.4207 118.056 36.3796L116.843 35.5309C116.728 35.4493 116.648 35.3268 116.622 35.1889C116.606 35.1221 116.607 35.0526 116.624 34.986C116.64 34.9195 116.673 34.8577 116.718 34.8058C117.001 34.4436 117.355 34.141 117.759 33.9159C118.122 33.7202 118.51 33.572 118.913 33.475C119.301 33.3822 119.697 33.3229 120.095 33.2979C120.488 33.2731 120.856 33.2443 121.199 33.2113C121.513 33.184 121.822 33.1232 122.123 33.0301C122.385 32.9438 122.612 32.7743 122.767 32.548C122.906 32.3569 122.997 32.1354 123.031 31.9022C123.065 31.6691 123.042 31.4313 122.963 31.209C122.765 30.6599 122.387 30.1915 121.889 29.8783C120.986 29.2438 120.001 29.2232 118.933 29.8165C118.826 29.8838 118.707 29.9313 118.582 29.9565C118.517 29.961 118.452 29.9527 118.39 29.9322C118.329 29.9117 118.272 29.8794 118.223 29.8371L116.935 28.9348C116.889 28.9043 116.849 28.8648 116.818 28.8188C116.787 28.7728 116.766 28.7212 116.756 28.667C116.746 28.6109 116.748 28.5534 116.761 28.4981C116.775 28.4428 116.8 28.3909 116.835 28.3456C117.139 27.962 117.534 27.6578 117.985 27.4598C118.497 27.231 119.046 27.0916 119.606 27.0478C120.223 26.997 120.845 27.0457 121.446 27.192C122.094 27.3461 122.705 27.6262 123.243 28.016Z" fill="#F58634"/>
<g opacity="0.6">
<path d="M117.458 37.3643C117.515 37.4033 117.563 37.4534 117.6 37.5115C117.637 37.5696 117.661 37.6345 117.671 37.7021C117.684 37.7692 117.683 37.8382 117.668 37.9048C117.653 37.9715 117.624 38.0343 117.583 38.0894L116.588 39.4696C116.549 39.5258 116.498 39.5734 116.439 39.6095C116.38 39.6457 116.314 39.6695 116.246 39.6797C116.178 39.6928 116.108 39.6919 116.04 39.677C115.972 39.6621 115.909 39.6336 115.853 39.5932L114.482 38.6333C114.425 38.5947 114.376 38.5447 114.34 38.4864C114.304 38.4282 114.281 38.3631 114.273 38.2954C114.259 38.2284 114.26 38.1594 114.275 38.0927C114.291 38.0261 114.32 37.9632 114.361 37.9081L115.368 36.5279C115.449 36.4161 115.572 36.3404 115.71 36.3172C115.848 36.2941 115.989 36.3254 116.104 36.4043L117.458 37.3643ZM123.243 28.016C123.743 28.3613 124.188 28.7779 124.564 29.252C124.93 29.6931 125.214 30.1954 125.4 30.7352C125.573 31.2525 125.632 31.8005 125.571 32.342C125.5 32.9195 125.279 33.4689 124.928 33.9365C124.667 34.3145 124.331 34.6368 123.941 34.8841C123.598 35.0962 123.224 35.2573 122.833 35.362C122.452 35.4601 122.064 35.5263 121.671 35.5597L120.559 35.6586C120.226 35.6849 119.896 35.7414 119.573 35.8275C119.275 35.8942 119.003 36.0428 118.787 36.256C118.69 36.3535 118.567 36.422 118.432 36.4538C118.368 36.4719 118.3 36.4746 118.235 36.4617C118.169 36.4488 118.108 36.4207 118.056 36.3796L116.843 35.5309C116.728 35.4493 116.648 35.3268 116.622 35.1889C116.606 35.1221 116.607 35.0526 116.624 34.986C116.64 34.9195 116.673 34.8577 116.718 34.8058C117.001 34.4436 117.355 34.141 117.759 33.9159C118.122 33.7202 118.51 33.572 118.913 33.475C119.301 33.3822 119.697 33.3229 120.095 33.2979C120.488 33.2731 120.856 33.2443 121.199 33.2113C121.513 33.184 121.822 33.1232 122.123 33.0301C122.385 32.9438 122.612 32.7743 122.767 32.548C122.906 32.3569 122.997 32.1354 123.031 31.9022C123.065 31.6691 123.042 31.4313 122.963 31.209C122.765 30.6599 122.387 30.1915 121.889 29.8783C120.986 29.2438 120.001 29.2232 118.933 29.8165C118.826 29.8838 118.707 29.9313 118.582 29.9565C118.517 29.961 118.452 29.9527 118.39 29.9322C118.329 29.9117 118.272 29.8794 118.223 29.8371L116.935 28.9348C116.889 28.9043 116.849 28.8648 116.818 28.8188C116.787 28.7728 116.766 28.7212 116.756 28.667C116.746 28.6109 116.748 28.5534 116.761 28.4981C116.775 28.4428 116.8 28.3909 116.835 28.3456C117.139 27.962 117.534 27.6578 117.985 27.4598C118.497 27.231 119.046 27.0916 119.606 27.0478C120.223 26.997 120.845 27.0457 121.446 27.192C122.094 27.3461 122.705 27.6262 123.243 28.016Z" fill="white"/>
</g>
<path d="M86.3296 73.8346H71.478V38.3696C71.478 35.2893 72.7195 32.3352 74.9293 30.1571C77.1391 27.979 80.1363 26.7554 83.2614 26.7554H84.6325C87.7576 26.7554 90.7548 27.979 92.9646 30.1571C95.1744 32.3352 96.4159 35.2893 96.4159 38.3696V63.9137C96.4104 66.5467 95.3453 69.0701 93.4543 70.9301C91.5634 72.79 89.001 73.8346 86.3296 73.8346Z" fill="#263238"/>
<path d="M70.0317 159.213C69.769 160.683 69.6292 162.171 69.6137 163.663C69.5594 166.366 69.0578 167.326 68.9909 169.542C68.9115 172.076 69.3587 173.024 70.3995 174.449C71.4404 175.875 74.1615 177.164 75.3403 174.758C76.5191 172.352 76.3477 170.774 75.9757 168.29C75.5953 165.719 75.5577 164.297 75.3236 162.34C75.1313 160.614 74.9056 159.3 74.9056 159.3L70.0317 159.213Z" fill="#263238"/>
<path d="M77.8149 141.262L68.7861 141.102C68.9199 147.043 69.8771 153.639 70.0401 159.23C70.0736 160.28 70.0151 167.383 70.4163 169.53C71.0224 172.776 74.9266 172.336 75.1356 170.395C75.3446 168.454 74.8848 160.161 74.8973 159.304C74.8597 155.728 76.5693 149.692 77.4513 143.273C77.4889 142.964 77.7731 141.571 77.8149 141.262Z" fill="#FFA8A7"/>
<path d="M89.4144 154.591C89.4144 154.591 89.0591 154.401 88.9964 154.776C88.9086 155.221 88.7749 156.14 88.5784 156.873C88.3192 157.891 88.1019 159.568 88.2565 160.4C88.4112 161.232 90.3758 162.295 91.6507 162.682C93.2219 163.16 94.6549 164.001 95.8307 165.134C97.0847 166.304 99.8142 167.408 101.683 167.396C103.877 167.396 105.407 166.675 106.13 165.517C106.853 164.359 105.47 164.219 102.962 162.633L101.018 161.397C97.0429 158.838 95.5841 157.471 94.468 154.912L89.4144 154.591Z" fill="#263238"/>
<path d="M94.5014 153.005C94.4345 151.167 95.722 135.548 95.722 135.548L87.1488 139.4C88.9838 150.203 89.3767 152.753 89.406 154.521C89.3684 154.669 89.3529 154.821 89.36 154.974C89.36 157.071 91.7719 158.204 93.6445 159.605C95.2364 160.834 96.9328 161.926 98.7149 162.868C100.078 163.539 102.845 163.601 103.187 162.74C100.905 161.022 97.5863 158.451 95.7721 156.49C94.886 155.567 94.5683 154.846 94.5014 153.005Z" fill="#FFA8A7"/>
<path d="M72.4854 83.2898C69.1916 90.4133 69.1916 95.9258 69.7391 105.019C70.224 113.362 71.0308 120.716 71.0308 120.716C70.9054 122.195 68.8196 125.083 68.5479 131.626C68.2971 137.74 68.9659 145.514 68.9659 145.514C68.9659 145.514 73.6516 148.073 77.1169 145.489C77.1169 145.489 80.4608 129.755 81.439 122.1C82.275 115.422 83.7798 106.889 83.7798 106.889L86.944 122.055C86.2611 124.207 85.766 126.412 85.4643 128.647C85.0212 133.15 87.5794 141.992 87.5794 141.992C87.5794 141.992 92.4198 143.413 95.3751 140.83C95.3751 140.83 96.4786 126.455 96.8924 121.033C97.4442 113.77 96.2821 94.1089 95.3751 83.6977L72.4854 83.2898Z" fill="#455A64"/>
<path d="M83.7881 106.877L85.0881 95.448C85.0881 95.448 90.915 94.6817 93.5568 92.2344C92.8007 93.4004 91.7934 94.388 90.6064 95.1271C89.4195 95.8662 88.082 96.3387 86.689 96.5109L84.808 107.145L86.944 122.055L83.7881 106.877Z" fill="#263238"/>
<path d="M107.384 80.4799C107.625 78.3944 107.731 76.2958 107.702 74.1969C107.572 72.3841 107.242 72.0875 104.671 68.878C101.202 64.5397 98.2384 60.638 95.1034 56.7611C92.8629 53.9925 90.5054 53.5681 88.2148 53.6917C86.6096 53.7782 89.7446 61.3879 91.3205 65.891L100.32 75.4412C100.599 75.8181 100.727 76.2831 100.68 76.7472L100.136 84.8719L102.832 88.4315C102.832 88.4315 106.916 84.9625 107.384 80.4799Z" fill="#FFA8A7"/>
<path d="M79.537 53.9389C77.794 54.0584 74.6255 54.3509 74.6255 54.3509C72.7989 55.3562 72.3349 56.1843 71.9963 58.5739C71.85 59.5957 72.6944 62.3108 73.4175 66.1712L74.7886 73.3277L74.6381 76.8791C73.9275 79.0462 72.3182 81.7366 70.897 85.7041C77.8776 89.544 83.7296 89.6882 89.0382 89.0001C93.0844 88.4851 95.2288 87.5211 95.9435 86.5652C95.7931 82.6471 95.5255 80.2245 95.4419 76.1293C95.4127 74.4112 95.5172 72.6726 95.5882 70.695C98.301 68.4949 98.3345 64.8363 96.8422 62.455C93.4021 56.963 90.0539 53.5063 87.8385 53.6835L79.537 53.9389Z" fill="#F58634"/>
<path opacity="0.6" d="M79.537 53.9389C77.794 54.0584 74.6255 54.3509 74.6255 54.3509C72.7989 55.3562 72.3349 56.1843 71.9963 58.5739C71.85 59.5957 72.6944 62.3108 73.4175 66.1712L74.7886 73.3277L74.6381 76.8791C73.9275 79.0462 72.3182 81.7366 70.897 85.7041C77.8776 89.544 83.7296 89.6882 89.0382 89.0001C93.0844 88.4851 95.2288 87.5211 95.9435 86.5652C95.7931 82.6471 95.5255 80.2245 95.4419 76.1293C95.4127 74.4112 95.5172 72.6726 95.5882 70.695C98.301 68.4949 98.3345 64.8363 96.8422 62.455C93.4021 56.963 90.0539 53.5063 87.8385 53.6835L79.537 53.9389Z" fill="white"/>
<path opacity="0.1" d="M90.1836 70.7486C90.1836 70.7486 86.9984 73.1876 83.3576 71.9145C82.3352 71.597 81.4133 71.0248 80.6811 70.2532C79.9488 69.4816 79.4309 68.5369 79.1776 67.5103C79.1776 67.5103 78.7931 71.6097 83.3785 73.0063C87.8219 74.3536 90.1836 70.7486 90.1836 70.7486Z" fill="black"/>
<path d="M94.5056 42.6873C94.3677 48.6366 92.4156 50.1033 91.4292 50.5153C90.4427 50.9273 88.5533 50.6801 86.7141 50.3794V53.972C86.7141 53.972 88.8376 56.1638 88.6787 57.7995C88.5199 59.4351 85.3347 59.6205 82.9605 58.0178C81.6504 57.1309 80.4655 56.0766 79.4367 54.8825C79.2392 54.6522 79.1311 54.3601 79.1316 54.0585V45.6537C79.1316 45.6537 78.1242 46.7043 76.3435 45.5013C75.9593 45.2596 75.6303 44.9418 75.3775 44.568C75.1246 44.1942 74.9534 43.7726 74.8748 43.3301C74.7962 42.8876 74.8118 42.4338 74.9208 41.9976C75.0297 41.5614 75.2295 41.1522 75.5075 40.7962C76.285 39.894 78.258 39.8322 79.2027 41.2082C79.7377 42.2341 79.8088 43.2682 80.4065 42.8562C81.9949 41.7274 81.1422 39.1482 83.0608 37.9122C83.6904 37.5883 84.3444 37.3129 85.017 37.0882C88.4405 35.9223 91.4083 34.9417 92.123 32.6345C93.469 33.3926 94.6728 35.671 94.5056 42.6873Z" fill="#FFA8A7"/>
<path d="M87.755 48.0021C88.1936 48.0021 88.5492 47.6517 88.5492 47.2193C88.5492 46.787 88.1936 46.4365 87.755 46.4365C87.3164 46.4365 86.9608 46.787 86.9608 47.2193C86.9608 47.6517 87.3164 48.0021 87.755 48.0021Z" fill="#B16668"/>
<path d="M87.2283 41.785C87.2281 41.9462 87.1799 42.1037 87.0898 42.2382C86.9996 42.3727 86.8715 42.4781 86.7211 42.5415C86.5708 42.6049 86.4049 42.6235 86.2439 42.5949C86.083 42.5663 85.9341 42.4918 85.8157 42.3807C85.6973 42.2695 85.6146 42.1266 85.5777 41.9695C85.5409 41.8125 85.5516 41.6483 85.6085 41.4972C85.6655 41.3461 85.7661 41.2147 85.898 41.1194C86.0298 41.0241 86.1872 40.9691 86.3505 40.961C86.4637 40.9554 86.5769 40.9726 86.6833 41.0115C86.7896 41.0504 86.8867 41.1102 86.9688 41.1873C87.0509 41.2644 87.1163 41.3571 87.1609 41.4598C87.2055 41.5626 87.2284 41.6732 87.2283 41.785Z" fill="#263238"/>
<path d="M93.561 41.8674C93.5696 41.9682 93.5577 42.0696 93.526 42.1659C93.4944 42.2621 93.4436 42.3511 93.3767 42.4278C93.3098 42.5045 93.2281 42.5673 93.1363 42.6126C93.0445 42.6578 92.9445 42.6846 92.8421 42.6914C92.7388 42.7008 92.6346 42.6884 92.5365 42.6551C92.4384 42.6218 92.3486 42.5683 92.2731 42.4981C92.1976 42.428 92.1381 42.3428 92.0985 42.2483C92.059 42.1537 92.0403 42.052 92.0437 41.9498C92.0329 41.8482 92.0433 41.7456 92.0742 41.6481C92.105 41.5506 92.1558 41.4604 92.2233 41.383C92.2908 41.3055 92.3737 41.2425 92.4668 41.1977C92.5599 41.153 92.6612 41.1274 92.7647 41.1226C92.8682 41.1179 92.9716 41.134 93.0685 41.17C93.1654 41.206 93.2539 41.2611 93.3285 41.332C93.403 41.4029 93.4621 41.488 93.5021 41.5822C93.5421 41.6764 93.5621 41.7776 93.561 41.8797V41.8674Z" fill="#263238"/>
<path d="M86.154 43.9026C85.4331 43.9026 84.7416 43.6206 84.2314 43.1185C83.7212 42.6164 83.434 41.9352 83.4329 41.2246C83.4329 39.4036 85.3389 39.4036 86.154 39.4036C86.9691 39.4036 88.871 39.4036 88.871 41.2246C88.8699 41.9345 88.5833 42.615 88.074 43.117C87.5647 43.619 86.8743 43.9015 86.154 43.9026ZM86.154 39.8238C84.482 39.8238 83.8634 40.2358 83.8634 41.2246C83.8634 41.8256 84.1056 42.402 84.5368 42.8269C84.9679 43.2519 85.5527 43.4906 86.1624 43.4906C86.7721 43.4906 87.3569 43.2519 87.788 42.8269C88.2192 42.402 88.4614 41.8256 88.4614 41.2246C88.4447 40.2152 87.801 39.8238 86.154 39.8238Z" fill="#455A64"/>
<path d="M93.0552 43.9026C92.3342 43.9026 91.6427 43.6206 91.1325 43.1185C90.6223 42.6164 90.3351 41.9352 90.334 41.2246C90.334 39.4036 92.2401 39.4036 93.0552 39.4036C93.8703 39.4036 95.7722 39.4036 95.7722 41.2246C95.7711 41.9345 95.4844 42.615 94.9752 43.117C94.4659 43.619 93.7754 43.9015 93.0552 43.9026ZM93.0552 39.8238C91.4082 39.8238 90.7645 40.2358 90.7645 41.2246C90.7645 41.8256 91.0067 42.402 91.4379 42.8269C91.869 43.2519 92.4538 43.4906 93.0635 43.4906C93.6733 43.4906 94.258 43.2519 94.6892 42.8269C95.1203 42.402 95.3625 41.8256 95.3625 41.2246C95.3458 40.2152 94.7021 39.8238 93.0552 39.8238Z" fill="#455A64"/>
<path d="M89.2932 40.3596L89.427 45.3654L92.098 44.5497L89.2932 40.3596Z" fill="#F28F8F"/>
<path d="M86.71 50.3917C84.7705 50.1403 80.7786 49.0115 80.1558 47.4541C80.4064 48.2412 80.895 48.934 81.5561 49.4399C82.7474 50.4493 86.71 51.5823 86.71 51.5823V50.3917Z" fill="#F28F8F"/>
<path d="M86.8061 37.9288L85.0338 38.9959C84.8941 38.756 84.8535 38.4724 84.9204 38.2039C84.9874 37.9353 85.1567 37.7026 85.3932 37.5539C85.5102 37.4839 85.6402 37.4381 85.7757 37.4191C85.9111 37.4001 86.049 37.4084 86.181 37.4435C86.3131 37.4785 86.4366 37.5396 86.544 37.623C86.6514 37.7064 86.7406 37.8104 86.8061 37.9288Z" fill="#263238"/>
<path d="M94.0165 39.1152L92.0436 38.4354C92.0818 38.3065 92.1463 38.1867 92.2332 38.0833C92.3201 37.9799 92.4275 37.8952 92.5489 37.8342C92.6702 37.7732 92.803 37.7374 92.9389 37.7288C93.0749 37.7203 93.2111 37.7392 93.3394 37.7845C93.604 37.8782 93.8219 38.0686 93.948 38.3164C94.074 38.5641 94.0986 38.8501 94.0165 39.1152Z" fill="#263238"/>
<path d="M88.6578 41.4388C88.6295 41.4388 88.6014 41.4333 88.5752 41.4225C88.5491 41.4116 88.5254 41.3958 88.5056 41.3758C88.4857 41.3559 88.4701 41.3322 88.4596 41.3063C88.4492 41.2803 88.4441 41.2525 88.4446 41.2246C88.4446 40.8826 89.1301 40.6602 89.7488 40.6602C90.3674 40.6602 90.7645 40.8826 90.7645 41.2246C90.7515 41.2694 90.7241 41.3087 90.6864 41.3368C90.6487 41.3648 90.6028 41.38 90.5555 41.38C90.5083 41.38 90.4623 41.3648 90.4246 41.3368C90.3869 41.3087 90.3595 41.2694 90.3465 41.2246C90.3465 41.1834 90.1333 41.0804 89.7613 41.0804C89.4618 41.0741 89.1638 41.1245 88.8835 41.2287C88.8836 41.2574 88.8777 41.2858 88.8662 41.3121C88.8547 41.3384 88.8379 41.3622 88.8167 41.3818C88.7956 41.4015 88.7706 41.4167 88.7432 41.4265C88.7159 41.4363 88.6868 41.4405 88.6578 41.4388Z" fill="#455A64"/>
<path d="M83.6544 41.2577H83.6293L78.8516 40.8457C78.6284 40.6276 78.3624 40.4565 78.0699 40.343L83.6795 40.8539C83.7357 40.8611 83.7869 40.8897 83.822 40.9336C83.8572 40.9775 83.8735 41.0331 83.8676 41.0887C83.8578 41.1371 83.8311 41.1805 83.7921 41.2113C83.7532 41.2422 83.7044 41.2586 83.6544 41.2577Z" fill="#455A64"/>
<path d="M64.0376 46.1687C65.601 44.1087 66.6669 42.5555 68.0922 40.8127C68.9032 39.8115 69.4215 39.0947 70.1822 38.0688C70.7173 37.3601 71.0182 36.7627 71.6285 36.5444C72.2879 36.2781 72.8821 35.8764 73.3716 35.3661C73.6725 35.0379 73.9517 34.6912 74.2076 34.3278C75.1035 33.1392 76.1677 32.0834 77.3677 31.1925C78.6217 30.2614 80.022 29.5445 81.3136 28.6587C82.0827 28.1272 82.9062 27.2455 81.9698 26.4215C81.6827 26.1832 81.339 26.0202 80.9708 25.9477C78.6927 25.4616 76.7114 26.232 74.4835 26.7923C73.5157 27.0304 72.5693 27.346 71.6536 27.7358C71.2032 27.9114 70.7809 28.1501 70.3996 28.4445C69.8666 28.9742 69.4297 29.5901 69.108 30.2655C68.134 31.9794 66.044 33.5121 64.581 34.8675C62.8714 36.4537 61.3415 37.9081 59.3895 39.655C57.6339 41.2329 55.9159 42.6832 54.3066 44.4053C52.9732 45.8267 53.4706 46.9391 53.6462 47.3264C54.733 49.5265 55.9493 50.3175 57.4082 51.6813C59.9162 54.042 68.5897 60.8359 71.4613 63.0813C72.0783 63.559 72.5629 64.1825 72.87 64.8941L73.4217 66.1507C76.6989 66.744 78.885 61.8947 76.1722 56.0567C75.7229 55.1127 75.0367 54.2973 74.1783 53.6877C70.7507 51.2281 64.0376 46.1687 64.0376 46.1687Z" fill="#FFA8A7"/>
<path d="M64.0376 46.1687C62.9946 47.4334 61.6045 48.3759 60.0332 48.8838C60.0332 48.8838 62.1232 49.4111 64.9865 46.8773L64.0376 46.1687Z" fill="#F28F8F"/>
<path d="M106.531 76.183L105.996 75.7298C105.916 75.6779 105.825 75.6453 105.73 75.6345C105.635 75.6238 105.539 75.6353 105.449 75.668L99.6428 77.2254C99.3504 77.3215 99.0824 77.4787 98.8573 77.6864C98.6322 77.894 98.4553 78.1471 98.3387 78.4284L94.1587 90.3064C94.1083 90.4032 94.0886 90.5126 94.102 90.6206C94.1154 90.7285 94.1614 90.8301 94.2339 90.912L94.7857 91.3817C94.866 91.4363 94.9585 91.4708 95.0554 91.4823C95.1522 91.4937 95.2505 91.4819 95.3416 91.4476L101.156 89.8903C101.448 89.7941 101.716 89.6369 101.941 89.4293C102.167 89.2216 102.343 88.9685 102.46 88.6872C103.296 86.3512 105.804 79.1453 106.64 76.8093C106.74 76.5167 106.69 76.2943 106.531 76.183Z" fill="#455A64"/>
<path d="M94.7063 90.7635L98.8863 78.8856C99.0025 78.6045 99.1793 78.3516 99.4045 78.1446C99.6297 77.9376 99.8979 77.7813 100.19 77.6866L105.992 76.1293C106.531 75.9851 106.828 76.2899 106.636 76.8091C105.8 79.1451 103.292 86.351 102.456 88.687C102.339 88.9683 102.162 89.2214 101.937 89.4291C101.712 89.6367 101.444 89.794 101.152 89.8901L95.35 91.4639C94.8149 91.5875 94.5265 91.2826 94.7063 90.7635Z" fill="#F58634"/>
<path d="M99.5592 78.0163C99.2574 78.2416 99.0234 78.5435 98.8821 78.8897L94.7021 90.7636C94.6542 90.8579 94.6343 90.9636 94.6446 91.0685C94.655 91.1735 94.6952 91.2734 94.7606 91.3569L94.2423 90.9201C94.168 90.8392 94.1206 90.7378 94.1064 90.6296C94.0922 90.5213 94.1119 90.4114 94.1629 90.3145L98.3429 78.4365C98.475 78.1136 98.6896 77.8298 98.9657 77.6125L99.5592 78.0163Z" fill="#37474F"/>
<path d="M104.939 81.5965C104.521 82.8037 103.07 83.6112 100.671 84.1715C98.2718 84.7319 96.9467 87.2409 97.3271 88.0031C97.7075 88.7653 101.587 89.4781 103.137 89.2597C104.688 89.0414 106.243 86.8331 106.715 86.1491C107.188 85.4652 107.731 80.6943 107.234 80.0392C106.736 79.3841 105.687 79.4871 105.687 79.4871L104.939 81.5965Z" fill="#F28F8F"/>
</svg>
